<svg width="20" height="20" viewBox="0 0 20 20" fill="none" xmlns="http://www.w3.org/2000/svg">
<rect width="20" height="20" rx="10" fill="#CCCCCC"/>
<path d="M8.98828 12.0742C8.98828 11.4681 9.06348 10.985 9.21387 10.625C9.36426 10.265 9.66048 9.87077 10.1025 9.44238C10.5492 9.00944 10.8317 8.70182 10.9502 8.51953C11.1325 8.24154 11.2236 7.94076 11.2236 7.61719C11.2236 7.1888 11.1165 6.86296 10.9023 6.63965C10.6927 6.41178 10.3828 6.29785 9.97266 6.29785C9.58073 6.29785 9.264 6.40951 9.02246 6.63281C8.78548 6.85156 8.66699 7.15007 8.66699 7.52832H7.00586C7.01497 6.72168 7.28841 6.08366 7.82617 5.61426C8.36849 5.14486 9.08398 4.91016 9.97266 4.91016C10.8887 4.91016 11.6019 5.14258 12.1123 5.60742C12.6273 6.07227 12.8848 6.72168 12.8848 7.55566C12.8848 8.2985 12.5384 9.02995 11.8457 9.75L11.0049 10.5771C10.7041 10.9189 10.5492 11.418 10.54 12.0742H8.98828ZM8.87207 14.2002C8.87207 13.9313 8.95638 13.7148 9.125 13.5508C9.29362 13.3822 9.52148 13.2979 9.80859 13.2979C10.1003 13.2979 10.3304 13.3844 10.499 13.5576C10.6676 13.7262 10.752 13.9404 10.752 14.2002C10.752 14.4508 10.6699 14.6605 10.5059 14.8291C10.3418 14.9977 10.1094 15.082 9.80859 15.082C9.50781 15.082 9.27539 14.9977 9.11133 14.8291C8.95182 14.6605 8.87207 14.4508 8.87207 14.2002Z" fill="white"/>
</svg>
