<svg width="18" height="20" viewBox="0 0 18 20" fill="none" xmlns="http://www.w3.org/2000/svg">
<path d="M7.80476 2.51973C9.45589 -0.026089 12.8803 -0.765523 15.4533 0.86813C18.0264 2.50178 18.7737 5.88995 17.1225 8.43576L17.1207 8.43586L11.3159 17.3859C11.0925 17.7303 10.6289 17.8303 10.2804 17.6091L10.1087 17.5C9.76032 17.2788 9.65902 16.8201 9.88245 16.4757L15.6871 7.52566L15.689 7.52556C16.8321 5.76311 16.3147 3.4175 14.5334 2.28643C12.7521 1.15545 10.3814 1.66738 9.23828 3.42984L7.80476 2.51973Z" fill="#2F80ED"/>
<path d="M9.23752 3.43059L2.10786 14.4235C1.34695 15.5982 1.69194 17.1605 2.87907 17.9141C4.06673 18.6679 5.6474 18.3267 6.40958 17.1518L8.24954 14.3153L8.24836 14.3145L12.8479 7.22282L12.849 7.22356C13.2299 6.63602 13.0575 5.85424 12.4637 5.47728C11.8699 5.10022 11.0797 5.2709 10.6987 5.85835L10.6975 5.8577L7.04528 11.5879C6.82185 11.9324 6.35828 12.0324 6.0098 11.8111L5.83813 11.702C5.48969 11.4809 5.38834 11.0222 5.61177 10.6777L9.26411 4.9474L9.2652 4.94815C10.1543 3.57743 11.9981 3.17925 13.3837 4.05889C14.7691 4.93862 15.1715 6.76295 14.2824 8.13377L14.2813 8.13311L12.442 10.969L12.4434 10.9699L7.84356 18.0622C6.57315 20.0201 3.93836 20.5887 1.959 19.3323C-0.0204115 18.0759 -0.595217 15.47 0.675147 13.5118L7.80401 2.52038L9.23752 3.43059Z" fill="#2F80ED"/>
</svg>
