<svg width="28" height="18" viewBox="0 0 28 18" fill="none" xmlns="http://www.w3.org/2000/svg">
<g opacity="0.25">
<path d="M5.63991 14.8445L7.06989 13.476C5.3236 12.1773 3.75778 10.6732 2.40996 8.99983C3.79994 7.26069 8.53986 1.9007 13.9998 1.9007C15.4437 1.918 16.8652 2.24275 18.1597 2.85106L19.6397 1.43503C17.9127 0.522701 15.9754 0.0297671 13.9998 0C6.4699 0 0.589991 8.11601 0.339995 8.46764L0 8.99983L0.379994 9.53203C1.86336 11.5278 3.63391 13.3161 5.63991 14.8445Z" fill="black"/>
<path d="M27.6592 8.46797C26.2363 6.57905 24.5548 4.87879 22.6592 3.41209L21.2293 4.7711C22.8527 6.01277 24.3161 7.43229 25.5892 9.00016C24.1992 10.7393 19.4593 16.0993 13.9994 16.0993C12.686 16.078 11.3917 15.7964 10.1994 15.2725L8.68945 16.7075C10.3284 17.5278 12.1473 17.9705 13.9994 18C21.5293 18 27.4092 9.88399 27.6592 9.53236L27.9991 9.00016L27.6592 8.46797Z" fill="black"/>
<path d="M19.7472 0.668794L3.93233 15.8368C3.57275 16.1817 3.59783 16.7649 3.98836 17.1394C4.37888 17.514 4.98696 17.538 5.34655 17.1931L21.1614 2.02516C21.521 1.68029 21.4959 1.09707 21.1054 0.722524C20.7149 0.347973 20.1068 0.323918 19.7472 0.668794Z" fill="black"/>
<path d="M17.1289 5.20624L10.1289 11.9199C10.5587 12.4696 11.1067 12.9242 11.7356 13.2531C12.3646 13.5819 13.0599 13.7773 13.7745 13.826C14.489 13.8748 15.2061 13.7756 15.8773 13.5354C16.5484 13.2951 17.1579 12.9194 17.6644 12.4335C18.171 11.9477 18.5628 11.3632 18.8133 10.7195C19.0638 10.0758 19.1671 9.38801 19.1163 8.70268C19.0655 8.01735 18.8618 7.35049 18.5189 6.74725C18.176 6.144 17.702 5.61847 17.1289 5.20624Z" fill="black"/>
<path d="M2.75 7.0751L8.52 12.6091" stroke="black" stroke-miterlimit="10"/>
<path d="M4.23047 5.70372L10.0005 11.2377" stroke="black" stroke-miterlimit="10"/>
<path d="M5.66992 4.33424L11.4399 9.86824" stroke="black" stroke-miterlimit="10"/>
<path d="M7.08008 2.95151L12.8501 8.4855" stroke="black" stroke-miterlimit="10"/>
<path d="M9 2.02087L14.31 7.11413" stroke="black" stroke-miterlimit="10"/>
<path d="M11.1797 1.38908L15.7097 5.7338" stroke="black" stroke-miterlimit="10"/>
<path d="M13.5 1.0524L17.1199 4.36286" stroke="black" stroke-miterlimit="10"/>
</g>
</svg>
