<svg width="160" height="132" viewBox="0 0 160 132" fill="none" xmlns="http://www.w3.org/2000/svg">
<path d="M44.4226 77.4823H12.8898V106.981H44.4226V77.4823Z" fill="#3F3D56"/>
<path d="M57.3016 117.237H0V67.2256H57.3016V117.237ZM0.339062 116.898H56.9625V67.5647H0.339062V116.898Z" fill="#3F3D56"/>
<path d="M135.862 48.2742C131.088 48.2742 126.422 46.8586 122.452 44.2064C118.483 41.5542 115.389 37.7845 113.562 33.374C111.735 28.9635 111.257 24.1103 112.189 19.4282C113.12 14.746 115.419 10.4452 118.795 7.06958C122.17 3.69394 126.471 1.3951 131.153 0.463768C135.835 -0.467568 140.689 0.0104293 145.099 1.83731C149.509 3.6642 153.279 6.75791 155.931 10.7272C158.584 14.6966 159.999 19.3632 159.999 24.1371C159.992 30.5365 157.447 36.6716 152.922 41.1967C148.397 45.7217 142.261 48.267 135.862 48.2742V48.2742ZM135.862 0.357568C131.159 0.357568 126.561 1.75221 122.651 4.36514C118.74 6.97807 115.693 10.6919 113.893 15.0371C112.093 19.3822 111.622 24.1635 112.539 28.7763C113.457 33.3891 115.722 37.6262 119.047 40.9518C122.373 44.2774 126.61 46.5422 131.223 47.4597C135.836 48.3773 140.617 47.9064 144.962 46.1065C149.307 44.3067 153.021 41.2588 155.634 37.3483C158.247 33.4378 159.642 28.8403 159.642 24.1371C159.635 17.8326 157.127 11.7883 152.669 7.33028C148.211 2.87229 142.167 0.364675 135.862 0.357574V0.357568Z" fill="#3F3D56"/>
<path d="M135.152 35.7588C141.57 35.7588 146.773 30.5556 146.773 24.1372C146.773 17.7188 141.57 12.5156 135.152 12.5156C128.733 12.5156 123.53 17.7188 123.53 24.1372C123.53 30.5556 128.733 35.7588 135.152 35.7588Z" fill="#3F3D56"/>
<path d="M154.522 59.3769L147.619 63.3627L151.604 70.2661L158.508 66.2804L154.522 59.3769Z" fill="#FF6584"/>
<path d="M49.1685 20.6877L42.265 24.6734L46.2507 31.5769L53.1542 27.5911L49.1685 20.6877Z" fill="#3F3D56"/>
<path d="M144.901 102.875L137.997 106.861L141.983 113.764L148.886 109.779L144.901 102.875Z" fill="#E5E5E5"/>
<path d="M31.5436 89.3494H25.7796V95.1135H31.5436V89.3494Z" fill="#6C63FF"/>
<path d="M135.148 26.9978C136.728 26.9978 138.009 25.717 138.009 24.1371C138.009 22.5571 136.728 21.2764 135.148 21.2764C133.568 21.2764 132.288 22.5571 132.288 24.1371C132.288 25.717 133.568 26.9978 135.148 26.9978Z" fill="#6C63FF"/>
<path d="M125.368 62.9786L110.56 71.5284L119.109 86.3369L133.918 77.7872L125.368 62.9786Z" fill="#6C63FF"/>
<path d="M130.93 131.542H39.1253V131.979H130.93V131.542Z" fill="#CBCBCB"/>
<path d="M73.9706 72.5791C73.7046 72.2372 73.5168 71.8412 73.4204 71.419C73.324 70.9967 73.3213 70.5585 73.4126 70.1351C73.5039 69.7117 73.6869 69.3134 73.9488 68.9684C74.2106 68.6234 74.5449 68.34 74.9282 68.1382L74.3095 61.3962L78.3149 60.021L79.0548 69.5542C79.3512 70.2205 79.3929 70.9723 79.172 71.6673C78.9511 72.3622 78.483 72.952 77.8563 73.3249C77.2296 73.6977 76.4879 73.8277 75.7717 73.6903C75.0556 73.5528 74.4147 73.1574 73.9706 72.5791V72.5791Z" fill="#FFB8B8"/>
<path d="M78.265 33.8842C78.265 33.8842 81.0136 28.1158 83.456 30.1449C85.8984 32.174 80.1075 49.2299 80.1075 49.2299L79.2268 65.7873L74.5849 65.3234L73.2725 49.1919L78.265 33.8842Z" fill="#CCCCCC"/>
<path d="M41.401 119.225L44.8468 122.014L57.245 110.051L52.1595 105.934L41.401 119.225Z" fill="#FFB8B8"/>
<path d="M41.4308 117.388L48.2167 122.881L48.217 122.881C49.3638 123.81 50.0948 125.156 50.2493 126.623C50.4037 128.091 49.969 129.56 49.0406 130.706L48.9269 130.847L37.8164 121.853L41.4308 117.388Z" fill="#2F2E41"/>
<path d="M89.2843 126.967L93.7176 126.967L95.8265 109.868L89.2837 109.868L89.2843 126.967Z" fill="#FFB8B8"/>
<path d="M88.1587 125.52L96.8892 125.52H96.8895C98.3651 125.52 99.7802 126.106 100.824 127.149C101.867 128.193 102.453 129.608 102.453 131.083V131.264L88.1589 131.265L88.1587 125.52Z" fill="#2F2E41"/>
<path d="M97.0743 46.8039C97.0743 46.8039 105.391 56.9288 103.583 67.0536C101.775 77.1784 100.329 84.7721 100.329 84.7721L97.4359 107.553C97.4359 107.553 98.5207 113.757 97.0743 115.356C97.0743 115.356 99.2439 119.124 95.2663 120.571C91.2887 122.017 89.1425 120.071 89.1425 120.071C89.1425 120.071 86.2263 115.87 88.0343 114.785L88.7959 70.078L59.8294 107.915C59.8294 107.915 59.2969 112.517 55.5855 112.566L51.151 115.87L46.0885 112.977L48.6197 109.723C48.6197 109.723 47.1733 106.107 50.4277 105.383L69.231 80.7944L73.9318 68.1384C73.9318 68.1384 76.463 58.3752 83.3335 54.3975V50.1651L97.0743 46.8039Z" fill="#2F2E41"/>
<path d="M82.7735 29.2662C83.8683 27.9723 85.4009 27.1263 87.0792 26.8893C88.7575 26.6523 90.4644 27.041 91.8747 27.9812L92.1751 28.1814C95.3848 31.8162 97.542 36.2578 98.4145 41.0277L99.7687 48.4311L82.7735 52.1126L78.7892 38.3717C78.2835 36.6276 78.4052 34.7614 79.1332 33.0978C79.8611 31.4341 81.1493 30.0783 82.7735 29.2662V29.2662Z" fill="#CCCCCC"/>
<path d="M110.698 74.1531C110.227 73.9991 109.795 73.7437 109.433 73.4048C109.072 73.0659 108.788 72.6518 108.604 72.1917C108.42 71.7316 108.338 71.2366 108.366 70.7417C108.393 70.2467 108.529 69.7639 108.764 69.3271L103.861 63.3269L106.781 59.4583L113.585 68.0289C114.293 68.4713 114.814 69.1579 115.049 69.9586C115.284 70.7593 115.218 71.6185 114.862 72.3734C114.506 73.1283 113.885 73.7264 113.118 74.0544C112.351 74.3825 111.489 74.4176 110.698 74.1531V74.1531Z" fill="#FFB8B8"/>
<path d="M90.0098 34.6903C90.0098 34.6903 88.925 27.4583 92.541 27.8199C96.157 28.1815 101.581 48.0696 101.581 48.0696L111.344 64.3416L106.643 66.8728L95.0722 52.4088L90.0098 34.6903Z" fill="#CCCCCC"/>
<path d="M96.6402 24.1174H79.421C79.0668 24.117 78.7272 23.9761 78.4768 23.7256C78.2263 23.4752 78.0854 23.1356 78.0851 22.7814V15.3593C78.0851 12.7216 79.1329 10.1919 80.998 8.32674C82.8632 6.46158 85.3929 5.41374 88.0306 5.41374C90.6684 5.41374 93.1981 6.46158 95.0632 8.32674C96.9284 10.1919 97.9762 12.7216 97.9762 15.3593V22.7814C97.9758 23.1356 97.8349 23.4752 97.5845 23.7256C97.334 23.9761 96.9944 24.117 96.6402 24.1174V24.1174Z" fill="#2F2E41"/>
<path d="M96.4635 20.1503C98.3952 16.6167 97.0965 12.1863 93.5629 10.2546C90.0293 8.32296 85.5988 9.6216 83.6672 13.1552C81.7355 16.6888 83.0342 21.1193 86.5678 23.051C90.1014 24.9826 94.5319 23.684 96.4635 20.1503Z" fill="#FFB8B8"/>
<path d="M100.324 16.1015H91.1474L91.0533 14.5899L90.5828 16.1015H89.1698L88.9833 13.1054L88.0508 16.1015H85.3167V15.9531C85.3167 11.6149 88.3926 8.08568 92.1734 8.08568H93.4672C97.248 8.08568 100.324 11.6149 100.324 15.9531L100.324 16.1015Z" fill="#2F2E41"/>
<path d="M91.53 25.5029C91.4179 25.5028 91.3059 25.4942 91.1951 25.4771L80.2726 23.7947V12.4182C80.2726 11.8427 80.3859 11.2729 80.6061 10.7413C80.8264 10.2096 81.1491 9.72658 81.556 9.31968C81.9629 8.91278 82.446 8.59001 82.9776 8.36979C83.5093 8.14958 84.0791 8.03624 84.6545 8.03624H92.2962L91.9985 8.33922C87.8569 12.5558 90.9771 19.3931 93.2056 23.0934C93.3692 23.3594 93.4431 23.6708 93.4164 23.9819C93.3898 24.293 93.2639 24.5874 93.0575 24.8216C92.8678 25.0395 92.6328 25.2134 92.369 25.331C92.1052 25.4487 91.8189 25.5073 91.53 25.5029Z" fill="#2F2E41"/>
</svg>
