<svg width="200" height="200" viewBox="0 0 200 200" fill="none" xmlns="http://www.w3.org/2000/svg">
<path d="M17.8908 131.373C18.013 133.634 18.0118 135.907 18.2761 138.153C19.2446 146.34 11.4226 145.96 6.54206 147.911C2.03357 149.714 2.0761 145.613 1.25849 143.051C-2.60838 130.946 2.73104 122.217 13.2295 115.374C16.2729 114.429 19.3297 112.647 22.3611 112.685C34.5674 112.84 46.491 114.947 58.1191 118.429C59.9999 118.992 61.9691 119.309 63.8964 119.74C63.2651 117.96 62.5823 116.195 62.0169 114.398C58.2052 102.296 51.938 90.7766 50.9582 78.0122C50.2456 68.7452 61.4948 53.9115 76.0879 56.3337C88.2737 58.3576 100.341 60.6686 112.231 63.8168C112.984 64.0163 113.844 63.8772 114.656 63.8934C114.518 63.2407 114.458 62.5662 114.23 61.944C112.644 57.5997 110.825 53.3187 109.455 48.9201C106.227 38.5648 99.3855 28.7682 103.446 17.2382C103.554 17.0898 103.664 16.9392 103.772 16.7908C104.186 16.1247 104.597 15.4569 105.011 14.7909C109.578 9.54571 112.646 2.6685 120.478 0.75715C127.737 -1.01489 135.093 0.747452 142.341 1.7441C143.251 1.86878 144.08 2.95498 143.439 4.28377C142.557 6.10162 141.457 7.96222 141.208 9.88638C139.92 19.8442 133.172 18.8229 125.739 16.6262C122.044 15.3377 118.01 14.3445 114.696 16.4803C113.69 17.1281 117.268 18.748 118.385 20.2206C118.36 20.6652 118.229 21.128 118.328 21.547C119.38 26.0644 120.468 30.5769 121.544 35.0884C120.874 34.56 120.186 34.0506 119.539 33.501C117.517 31.7906 115.859 29.2863 112.725 29.6085C111.536 29.7294 110.08 31.0693 109.534 32.1789C108.853 33.5593 109.428 35.1706 110.759 36.3193C116.553 41.3129 122.358 46.2999 128.156 51.2893C129.435 55.2507 130.371 59.3464 132.111 63.131C133.3 65.7158 133.293 69.3402 137.85 69.9555C142.777 70.6207 147.611 71.8679 152.487 72.8614C156.851 73.7097 161.22 74.4974 165.718 73.9859C171.133 73.9247 176.577 74.1795 181.849 72.6586C184.865 72.5265 188.1 72.1186 189.521 69.6169C189.868 69.0028 186.451 66.5798 184.764 64.9882C184.256 62.4224 183.681 59.8658 183.259 57.2911C182.879 54.9809 180.448 51.4732 182.907 50.5726C187.567 48.8681 193.686 45.6564 197.716 48.7384C201.102 51.3269 199.957 57.2361 199.098 61.6918C197.492 70.0157 192.17 76.4164 185.793 82.1818C183.958 83.3601 182.172 84.6122 180.278 85.706C169.092 92.1787 157.162 89.7344 145.351 87.9928C142.584 87.5847 141.653 87.712 143.149 90.3555C143.841 91.5789 144.227 92.9473 144.806 94.2263C153.879 114.272 147.892 133.771 129.089 143.124C118.589 148.348 107.036 147.03 95.7073 145.458C94.6018 145.304 94.053 145.28 94.4431 146.631C95.7363 151.109 96.8873 155.624 98.0921 160.128C98.2593 160.51 98.4223 160.893 98.5895 161.275C98.5644 161.367 98.5435 161.458 98.5185 161.549C98.5205 161.615 98.5203 161.679 98.5242 161.743C98.5079 161.816 98.534 161.868 98.607 161.903C98.8606 163.526 99.1161 165.148 99.3696 166.772L99.3999 166.823C99.4389 167.189 99.4756 167.553 99.5146 167.919L99.487 167.983C99.5686 168.863 99.6483 169.746 99.7299 170.626L99.7617 170.672C99.6973 171.436 99.6305 172.199 99.566 172.963L99.5327 173.012C99.3885 174.025 99.2447 175.042 99.1006 176.055C99.0358 176.084 99.0105 176.129 99.0293 176.193C98.61 177.487 98.1866 178.78 97.7673 180.074L97.719 180.165C97.5966 180.542 97.4723 180.92 97.3476 181.295C97.3476 181.295 97.3303 181.336 97.3322 181.333C94.729 184.8 92.1258 188.266 89.5245 191.731C85.3913 196.104 80.0482 198.605 74.0322 199.866C72.3482 200.219 70.4659 199.773 68.6773 199.691C68.8733 197.026 69.183 194.36 69.2458 191.692C69.4417 183.347 76.6824 184.581 82.2399 183.513C85.0555 183.744 87.3205 182.512 89.5156 181.143C89.5835 181.103 89.412 180.542 89.2106 180.355C87.4877 178.768 85.73 177.215 83.9839 175.649C82.1044 169.465 80.2269 163.279 78.3474 157.095C81.249 159.296 84.1029 161.548 87.0611 163.678C88.9295 165.021 91.0845 164.917 92.5774 163.331C94.0222 161.794 93.1488 160.421 91.4708 159.15C85.508 154.648 79.673 150.001 73.7882 145.409C74.1005 138.732 67.9547 139.071 63.5951 137.47C59.0615 136.48 54.5321 135.489 49.9985 134.499C42.7178 133.156 35.4352 131.815 28.1569 130.473C26.5256 129.939 24.938 129.152 23.258 128.926C20.5928 128.568 17.8683 128.586 15.1669 128.446C16.0646 129.432 16.9775 130.4 17.8908 131.373ZM74.3444 123.171C75.1651 123.348 75.9836 123.522 76.8043 123.699C78.9167 123.902 80.7624 125.826 83.1087 124.517C79.5192 120.787 77.5651 115.659 72.6374 113.165C70.4917 112.08 68.1167 114.241 68.1904 116.036C68.3278 119.455 69.6684 122.724 74.3444 123.171ZM115.613 82.2691C111.368 79.6993 106.367 79.7407 101.639 78.8402C93.7689 77.4452 85.8966 76.0486 78.0285 74.6515C76.82 74.2364 75.6424 73.613 74.3943 73.4456C71.2033 73.0173 67.9831 72.7912 64.7719 72.4829C65.7748 73.4891 66.7778 74.4953 67.7812 75.5053C68.9372 80.3385 70.0912 85.1737 71.2472 90.0068C69.8469 88.7725 68.5342 87.4379 67.0223 86.3387C65.9253 85.5419 64.5318 84.5128 63.3168 84.5601C61.3662 84.6395 59.8437 86.0023 59.444 87.8783C59.2569 88.7513 59.3152 90.0956 59.9025 90.6131C65.8392 95.8631 71.9097 100.988 77.9454 106.146C79.6309 110.535 81.1453 114.988 83.0709 119.284C84.0456 121.457 84.026 124.622 86.9767 125.386C92.5796 126.837 98.3374 127.787 104.031 128.948C108.328 130.176 112.674 130.754 117.136 129.793C122.467 130.138 127.549 129.128 132.503 127.411C135.276 126.974 138.141 126.169 139.508 124.002C139.842 123.474 136.621 121.041 135.031 119.492C134.759 119.229 134.465 118.985 134.18 118.732C132.272 112.855 130.367 106.98 128.46 101.103C130.802 102.985 133.245 104.774 135.453 106.782C137.261 108.424 139.057 109.828 141.456 108.032C143.198 106.727 143.944 104.952 142.381 102.977C138.926 100.656 135.532 98.2587 132.407 95.2747C129.46 92.9751 126.51 90.6737 123.563 88.374C123.265 83.7456 119.506 82.9359 115.613 82.2691ZM124.571 59.1631C123.014 57.79 121.26 56.4152 119.269 58.0874C118.343 58.8646 117.541 60.7982 117.957 61.7256C120.668 67.7767 126.961 68.5046 132.879 69.6666C133.102 69.7107 133.535 69.4022 133.664 69.1628C133.772 68.9677 133.674 68.5526 133.498 68.3707C130.54 65.2877 127.552 62.2285 124.571 59.1631Z" fill="#AACC66"/>
<path d="M184.751 64.993C186.438 66.5847 189.857 69.0094 189.508 69.6217C188.088 72.1234 184.852 72.5314 181.837 72.6634C181.73 72.3847 181.716 72.0132 181.507 71.8417C160.473 54.6277 139.425 37.4245 118.377 20.2251C117.26 18.7526 113.684 17.1344 114.687 16.4849C118.002 14.349 122.035 15.3423 125.73 16.6307C128.369 18.796 176.987 58.679 176.987 58.679C177.033 58.7897 182.63 63.3703 184.751 64.993Z" fill="#3D85CC"/>
<path d="M83.9693 175.664C85.7155 177.23 87.4731 178.783 89.196 180.369C89.3993 180.555 89.5708 181.116 89.501 181.158C87.304 182.529 85.0409 183.759 82.2253 183.527C77.5625 179.693 35.4122 145.362 19.3552 132.451C18.8674 132.092 18.3774 131.732 17.8896 131.373C16.9786 130.402 16.0653 129.43 15.1523 128.461C17.8519 128.603 20.5763 128.585 23.2435 128.941C24.9211 129.165 26.5111 129.953 28.1423 130.488C28.3932 130.885 28.552 131.379 28.9079 131.661C37.5491 138.523 46.2556 145.319 54.8566 152.225C59.8161 156.207 79.1402 171.922 83.9693 175.664Z" fill="#3D85CC"/>
<path d="M71.2488 90.005C86.5437 103.267 101.839 116.533 117.134 129.795C112.67 130.754 108.325 130.178 104.029 128.95C103.952 128.673 103.975 128.294 103.782 128.131C95.1798 120.792 86.5605 113.471 77.9431 106.149C71.9093 100.988 65.8411 95.8651 59.9002 90.6155C59.3129 90.0979 59.2566 88.7516 59.4417 87.8807C59.8414 86.0046 61.364 84.6418 63.3145 84.5625C64.5296 84.5152 65.923 85.5443 67.02 86.3411C68.5357 87.4361 69.8485 88.7706 71.2488 90.005Z" fill="#3D85CC"/>
<path d="M121.533 35.0928C128.136 40.9316 134.727 46.783 141.343 52.6072C149.453 59.7455 157.583 66.8628 165.703 73.9906C161.202 74.5004 156.835 73.7144 152.471 72.8661C152.304 72.5302 152.23 72.1052 151.959 71.8709C144.03 65.0013 136.085 58.1507 128.14 51.294C122.342 46.3046 116.538 41.3176 110.744 36.3241C109.415 35.1771 108.836 33.5662 109.519 32.1836C110.067 31.0719 111.522 29.7359 112.709 29.6132C115.844 29.2911 117.502 31.7954 119.523 33.5057C120.175 34.055 120.865 34.5662 121.533 35.0928Z" fill="#3D85CC"/>
<path d="M128.452 101.105C119.867 94.2613 111.276 87.4296 102.72 80.5581C102.208 80.1451 101.992 79.4211 101.637 78.8402C106.364 79.7408 111.368 79.7011 115.61 82.2691C118.26 84.3035 120.907 86.34 123.557 88.3744C126.504 90.674 129.453 92.9755 132.4 95.2751C135.725 97.8414 139.05 100.411 142.374 102.978C143.936 104.95 143.193 106.726 141.45 108.033C139.051 109.829 137.253 108.427 135.446 106.782C133.236 104.777 130.792 102.99 128.452 101.105Z" fill="#3D85CC"/>
<path d="M78.3333 157.11C69.2151 150.068 60.0912 143.033 50.996 135.966C50.5402 135.611 50.3179 135.003 49.9844 134.514C54.518 135.504 59.0474 136.494 63.5787 137.482C66.9742 140.128 70.3762 142.776 73.7741 145.423C79.6588 150.016 85.494 154.662 91.4567 159.165C93.1343 160.431 94.0081 161.809 92.5633 163.346C91.0727 164.933 88.9154 165.035 87.047 163.693C84.0888 161.563 81.2326 159.308 78.3333 157.11Z" fill="#3D85CC"/>
<path d="M78.0229 74.6499C84.1264 79.3895 90.2451 84.1125 96.318 88.8856C97.3715 89.7131 98.2202 90.7609 99.1626 91.706C97.2015 92.5625 96.7401 90.2181 95.1906 90.1215C94.7534 90.0946 94.3383 89.7457 93.9139 89.543C94.0226 89.9981 94.1565 90.4513 94.2362 90.9126C94.2992 91.286 94.2977 91.6705 94.3211 92.049C94.0165 91.9745 93.503 91.7674 93.443 91.846C92.759 92.7745 88.8523 87.5708 90.6273 93.078C90.6544 93.1632 90.3581 93.42 90.3512 93.4147C88.9501 92.5046 87.4643 91.6789 86.1835 90.6368C80.016 85.6228 73.9042 80.5519 67.7711 75.5002C66.7681 74.4939 65.7651 73.4877 64.7617 72.4777C67.9706 72.7842 71.1951 73.01 74.3842 73.4404C75.6369 73.6113 76.8145 74.2347 78.0229 74.6499Z" fill="#3D85CC"/>
<path d="M132.494 127.416C126.118 122.265 119.739 117.117 113.368 111.96C113.048 111.702 112.805 111.365 112.527 111.065C112.701 110.934 112.885 110.677 113.046 110.687C117.651 111 115.195 109.404 113.932 108.04C113.593 107.675 113.536 107.092 113.348 106.608C113.804 106.713 114.264 106.923 114.714 106.906C124.292 106.552 126.711 116.152 134.171 118.733C134.455 118.987 134.75 119.23 135.022 119.493C136.613 121.046 139.834 123.475 139.5 124.002C138.132 126.174 135.267 126.979 132.494 127.416Z" fill="#3D85CC"/>
<path d="M124.566 59.163C127.548 62.2285 130.534 65.2898 133.494 68.3706C133.669 68.5525 133.766 68.9698 133.66 69.1627C133.528 69.4004 133.1 69.7085 132.874 69.6665C126.955 68.5028 120.661 67.7749 117.952 61.7255C117.537 60.7982 118.339 58.8645 119.265 58.0874C121.256 56.4151 123.011 57.7878 124.566 59.163Z" fill="#3D85CC"/>
<path d="M74.3466 123.171C69.6706 122.724 68.33 119.455 68.193 116.04C68.1212 114.243 70.4943 112.084 72.64 113.169C77.5676 115.662 79.5199 120.792 83.1113 124.521C80.7668 125.828 78.9192 123.906 76.8068 123.703C75.9858 123.523 75.1673 123.348 74.3466 123.171Z" fill="#3D85CC"/>
<path d="M74.3477 123.171C75.1683 123.348 75.9867 123.522 76.8054 123.701C75.9867 123.522 75.1683 123.348 74.3477 123.171Z" fill="#3D85CC"/>
<path d="M108.7 100.276C108.889 100.422 109.698 101.046 110.504 101.668C109.387 101.463 108.255 101.3 107.153 101.041C104.265 100.365 101.33 99.7884 98.5513 98.8358C97.9101 98.6157 97.3746 96.9566 97.5733 96.1176C97.8791 94.8295 98.7524 95.8248 99.4428 96.1399C102.274 97.4396 105.133 98.6904 108.7 100.276Z" fill="#3D85CC"/>
<path d="M96.0486 102.091C98.1384 102.944 100.151 103.808 102.207 104.588C104.214 105.352 106.268 106.02 108.287 106.758C108.506 106.837 108.801 107.126 108.781 107.289C108.746 107.569 108.564 107.918 108.32 108.075C106.305 109.369 96.2115 104.869 96.0041 102.599C95.9878 102.472 96.0237 102.339 96.0486 102.091Z" fill="#3D85CC"/>
<path d="M93.3763 95.5784C93.6595 97.2248 95.8114 98.2899 94.515 100.009C94.172 100.462 92.9754 100.37 92.1719 100.528C92.255 98.9391 92.3271 97.3456 92.4547 95.7593C92.461 95.6928 92.962 95.6583 93.3763 95.5784Z" fill="#3D85CC"/>
<path d="M107.06 97.274C105.413 96.2633 105.45 94.8493 105.707 93.3806C105.709 93.361 106.44 93.3255 106.52 93.4588C107.436 94.9766 108.295 96.5244 109.171 98.0648C108.469 97.8011 107.766 97.5374 107.06 97.274Z" fill="#3D85CC"/>
</svg>
