<svg id="Слой_1" data-name="Слой 1" xmlns="http://www.w3.org/2000/svg" viewBox="0 0 60 54"><defs><style>.cls-1{fill:#3f3d56;}.cls-2{fill:#e6e6e6;}.cls-3{fill:#2f80ed;}.cls-4{fill:#fff;}.cls-5{fill:#ccc;}</style></defs><path class="cls-1" d="M52.09,87,52,87,22.91,66.68a.51.51,0,0,0-.3-.09.53.53,0,0,0-.3.09L-6.59,87a.11.11,0,0,1-.08,0,.1.1,0,0,1-.07,0,.11.11,0,0,1,0-.08.1.1,0,0,1,0-.07l28.9-20.32a.7.7,0,0,1,.42-.13.64.64,0,0,1,.42.13L52.15,86.83s0,0,0,.06V87l0,.06-.06,0Z" transform="translate(7.39 -66.38)"/><path class="cls-2" d="M-4.93,87.75l27.58-20.5,27.79,22L24.07,104.88,9.75,101.61Z" transform="translate(7.39 -66.38)"/><path class="cls-3" d="M11,114.56H-2.67a.64.64,0,0,1-.45-.19.64.64,0,0,1-.19-.45.64.64,0,0,1,.19-.45.64.64,0,0,1,.45-.19H11a.65.65,0,0,1,.45.19.65.65,0,0,1,0,.9.64.64,0,0,1-.45.19Z" transform="translate(7.39 -66.38)"/><path class="cls-3" d="M2.22,111.81H-2.67a.67.67,0,0,1-.45-.18.66.66,0,0,1-.19-.46.65.65,0,0,1,.19-.45.63.63,0,0,1,.45-.18H2.22a.51.51,0,0,1,.24,0,.77.77,0,0,1,.21.14.6.6,0,0,1,.14.21.69.69,0,0,1,0,.24.7.7,0,0,1,0,.25.66.66,0,0,1-.14.2.6.6,0,0,1-.21.14.64.64,0,0,1-.24,0Z" transform="translate(7.39 -66.38)"/><path class="cls-4" d="M23,99.16a.73.73,0,0,1-.3-.06L5.72,92V69.88a.72.72,0,0,1,.21-.52.74.74,0,0,1,.52-.22H39.08a.75.75,0,0,1,.53.22.76.76,0,0,1,.21.52V92l0,0-16.45,7a.85.85,0,0,1-.31.06Z" transform="translate(7.39 -66.38)"/><path class="cls-1" d="M23,99.21a.87.87,0,0,1-.32-.06l-17-7.09V69.88a.79.79,0,0,1,.79-.79H39.09a.79.79,0,0,1,.79.79v22.2L23.37,99.15a1,1,0,0,1-.34.06ZM5.88,91.92l16.91,7a.64.64,0,0,0,.49,0l16.39-7V69.88a.57.57,0,0,0-.17-.41.58.58,0,0,0-.41-.17H6.46a.58.58,0,0,0-.41.17.57.57,0,0,0-.17.41Z" transform="translate(7.39 -66.38)"/><path class="cls-1" d="M51.88,86.82h0L39.77,92,23.24,99.07a.52.52,0,0,1-.21,0,.48.48,0,0,1-.2,0L5.77,92-6.61,86.82h0a.73.73,0,0,0-.52.21.75.75,0,0,0-.22.53v32.08a.74.74,0,0,0,.22.52.74.74,0,0,0,.52.22H51.88a.74.74,0,0,0,.52-.22.73.73,0,0,0,.21-.52V87.56a.72.72,0,0,0-.73-.74Zm.52,32.82a.51.51,0,0,1-.15.37.52.52,0,0,1-.37.16H-6.65A.52.52,0,0,1-7,120a.51.51,0,0,1-.15-.37V87.56A.55.55,0,0,1-7,87.19.52.52,0,0,1-6.67,87L5.77,92.2l17,7.07a.75.75,0,0,0,.57,0l16.45-7L51.9,87a.52.52,0,0,1,.36.16.55.55,0,0,1,.14.37Z" transform="translate(7.39 -66.38)"/><path class="cls-3" d="M20.39,77.42H8.81a.88.88,0,0,1-.6-.25.87.87,0,0,1,0-1.2.87.87,0,0,1,.6-.24H20.39A.87.87,0,0,1,21,76a.84.84,0,0,1,0,1.2.88.88,0,0,1-.59.25Z" transform="translate(7.39 -66.38)"/><path class="cls-3" d="M14.39,73.83H8.81a.86.86,0,0,1-.6-.25.84.84,0,0,1,.6-1.44h5.58a.87.87,0,0,1,.59.24.84.84,0,0,1,0,1.2.83.83,0,0,1-.59.25Z" transform="translate(7.39 -66.38)"/><path class="cls-5" d="M31.43,85.86H13.75a.86.86,0,0,1-.6-.25.86.86,0,0,1,0-1.19.86.86,0,0,1,.6-.25H31.43a.84.84,0,0,1,.6.25.86.86,0,0,1,0,1.19.84.84,0,0,1-.6.25Z" transform="translate(7.39 -66.38)"/><path class="cls-5" d="M31.43,89.76H13.75a.82.82,0,0,1-.84-.84.87.87,0,0,1,.24-.6.86.86,0,0,1,.6-.25H31.43a.85.85,0,0,1,.85.85.86.86,0,0,1-.25.6.87.87,0,0,1-.6.24Z" transform="translate(7.39 -66.38)"/></svg>