<svg width="92" height="60" viewBox="0 0 92 60" fill="none" xmlns="http://www.w3.org/2000/svg">
<path d="M67.8056 19.1557V41.9368H73.0103V13.0469H69.5553C68.6413 14.0038 66.714 14.9713 64.6719 15.2361V19.2029C65.5049 19.2606 67.111 19.2554 67.8056 19.1557Z" fill="#258CCC"/>
<path d="M92.0009 17.2575V13.1753H76.7551V17.6639H86.7884C83.6625 23.0439 80.0325 32.4484 78.7399 41.9394H84.2292C85.3599 32.8731 88.3109 23.6941 92.0009 17.2575Z" fill="#258CCC"/>
<path d="M53.3114 4.29437C52.9611 3.49529 52.5715 2.72055 52.126 1.97016C51.75 1.34092 52.0033 0.559616 52.5935 0.182073C53.1889 -0.205957 54.0298 0.0614691 54.3797 0.65138C55.5001 2.53385 56.3253 4.60509 56.8554 6.73139C57.8269 10.6327 57.8713 14.7463 57.0826 18.6817C56.3175 22.5122 54.6748 26.1775 52.1365 29.1506C51.6612 29.7064 50.7785 29.6016 50.2902 29.1506C49.7444 28.6472 49.8462 27.8161 50.2902 27.297C50.4652 27.0925 50.6323 26.8854 50.7994 26.6756C50.8128 26.6585 50.823 26.6458 50.8305 26.6368C50.832 26.6345 50.8336 26.6322 50.8351 26.63C50.8464 26.6134 50.8571 26.5975 50.8673 26.5838L51.0788 26.2928C51.3687 25.8891 51.6403 25.4748 51.8962 25.0501C52.1548 24.6227 52.3976 24.1823 52.6248 23.7365C52.7345 23.5163 52.8416 23.2987 52.946 23.0758C53.0061 22.95 53.0636 22.8242 53.1184 22.6983C53.1312 22.6701 53.1726 22.575 53.2031 22.5049C53.2147 22.4782 53.2248 22.4552 53.231 22.4409C53.2451 22.4074 53.2578 22.3773 53.2594 22.3732C53.2686 22.3522 53.2771 22.3306 53.2856 22.3089C53.294 22.2873 53.3025 22.2657 53.3117 22.2447C53.3339 22.1881 53.3562 22.1314 53.3785 22.0743H49.1881V19.9768H54.0854C54.3386 19.0922 54.5429 18.1947 54.6983 17.2869C54.7375 17.0535 54.7741 16.8202 54.808 16.5842C54.8131 16.5436 54.8181 16.5029 54.8239 16.4623L54.8576 16.1778C54.8992 15.8003 54.9341 15.4227 54.9612 15.0452H47.1303V12.9477H55.0269C55.0243 12.6286 55.0158 12.3095 55.0013 11.9908C54.9804 11.5136 54.9438 11.039 54.8968 10.5671C54.8756 10.3544 54.8502 10.1417 54.8244 9.92904C54.8241 9.92766 54.8239 9.92623 54.8237 9.92477C54.8198 9.90118 54.8165 9.87758 54.8133 9.85398C54.81 9.83039 54.8067 9.80679 54.8028 9.7832C54.7871 9.67308 54.7715 9.56558 54.7532 9.45547C54.6901 9.06105 54.6179 8.66858 54.536 8.27827H49.1881V6.18081H53.9942C53.9142 5.92245 53.8293 5.66534 53.7399 5.40999C53.6642 5.19238 53.5833 4.97477 53.4997 4.75716C53.4801 4.70728 53.4598 4.65674 53.4395 4.60621C53.4193 4.5558 53.3991 4.5054 53.3796 4.45565C53.3739 4.44296 53.3676 4.42965 53.3611 4.41599C53.3423 4.37631 53.3221 4.33365 53.3114 4.29437Z" fill="#88BD24"/>
<path d="M45.3623 7.09582C45.3623 8.29332 44.3954 9.26407 43.2027 9.26407C42.0099 9.26407 41.043 8.29332 41.043 7.09582C41.043 5.89833 42.0099 4.92758 43.2027 4.92758C44.3954 4.92758 45.3623 5.89833 45.3623 7.09582Z" fill="#88BD24"/>
<path d="M43.2027 16.2276C44.3954 16.2276 45.3623 15.2569 45.3623 14.0594C45.3623 12.8619 44.3954 11.8911 43.2027 11.8911C42.0099 11.8911 41.043 12.8619 41.043 14.0594C41.043 15.2569 42.0099 16.2276 43.2027 16.2276Z" fill="#88BD24"/>
<path d="M43.2105 23.1938C44.4033 23.1938 45.3702 22.2231 45.3702 21.0256C45.3702 19.8281 44.4033 18.8573 43.2105 18.8573C42.0177 18.8573 41.0508 19.8281 41.0508 21.0256C41.0508 22.2231 42.0177 23.1938 43.2105 23.1938Z" fill="#88BD24"/>
<path d="M44.9024 42.4611C45.0826 38.5022 46.0984 34.5406 48.1328 31.1217C48.5088 30.4925 49.2897 30.3168 49.9216 30.6524C50.5405 30.9801 50.739 31.8558 50.3891 32.4457C50.1253 32.8915 49.8746 33.345 49.6448 33.8117C49.5377 34.032 49.4333 34.2548 49.3314 34.4777C49.2874 34.5742 49.2448 34.6723 49.2027 34.7695C49.1898 34.7991 49.1771 34.8285 49.1643 34.8578C49.16 34.8676 49.1565 34.8755 49.1537 34.8816C49.1416 34.911 49.1294 34.9408 49.1173 34.9706C48.8959 35.5233 48.6973 36.0849 48.5212 36.6538H53.327V38.7512H47.9776C47.9439 38.9107 47.912 39.0705 47.8821 39.231C47.8351 39.4775 47.7907 39.7266 47.7515 39.9756C47.7332 40.0857 47.7175 40.1932 47.7019 40.3034C47.6972 40.3367 47.6937 40.3612 47.6912 40.3787C47.5764 41.3062 47.506 42.2389 47.4903 43.1743C47.489 43.2564 47.488 43.3385 47.4873 43.4207H55.3822V45.5182H47.5523C47.5633 45.673 47.5757 45.8277 47.5896 45.9822C47.6105 46.2208 47.6366 46.4568 47.6627 46.6927C47.6654 46.7206 47.6676 46.749 47.6698 46.7777C47.6761 46.8595 47.6825 46.9435 47.7019 47.0231C47.7019 47.023 47.7018 47.0225 47.7017 47.0217C47.7055 47.0475 47.7091 47.0733 47.7123 47.0991C47.7776 47.5527 47.856 48.0063 47.9447 48.4546C48.0801 49.1261 48.2411 49.7919 48.4301 50.4498H53.327V52.5473H49.1386C49.1717 52.6329 49.2051 52.7186 49.24 52.8042C49.2492 52.8252 49.2577 52.8468 49.2662 52.8685C49.2671 52.8708 49.268 52.8732 49.2689 52.8755C49.3149 53.0215 49.3861 53.1676 49.4558 53.3105C49.4811 53.3624 49.5063 53.414 49.5299 53.4649C49.906 54.2803 50.3316 55.0721 50.8095 55.8298C51.0393 56.1969 51.2848 56.5587 51.5407 56.91L51.6739 57.0909C51.6944 57.1171 51.7586 57.2058 51.7542 57.1996C51.7524 57.1971 51.7394 57.1792 51.7079 57.1355C51.6372 57.0371 51.6881 57.1044 51.7438 57.1781C51.7786 57.2242 51.8153 57.2728 51.8254 57.2849C51.9534 57.4475 52.0865 57.6074 52.2223 57.7647C52.6976 58.3232 52.7316 59.0625 52.2223 59.6183C51.7706 60.1139 50.8226 60.1401 50.376 59.6183C48.9763 57.9771 47.8429 56.1418 46.9968 54.1545C45.4325 50.4787 44.7222 46.4542 44.9024 42.4611Z" fill="#258CCC"/>
<path d="M49.2923 52.9327C49.2841 52.914 49.2765 52.8948 49.2689 52.8755C49.2801 52.9112 49.3807 53.1493 49.2923 52.9327Z" fill="#258CCC"/>
<path d="M49.2688 52.875C49.2688 52.8752 49.2689 52.8753 49.2689 52.8755L49.2688 52.875Z" fill="#258CCC"/>
<path d="M47.7017 47.0217C47.6991 47.0009 47.6661 46.7642 47.6862 46.9104C47.6901 46.9418 47.6947 46.9733 47.6993 47.0047C47.7001 47.0104 47.7009 47.016 47.7017 47.0217Z" fill="#258CCC"/>
<path d="M59.3099 39.737C60.5026 39.737 61.4695 38.7663 61.4695 37.5688C61.4695 36.3713 60.5026 35.4005 59.3099 35.4005C58.1171 35.4005 57.1502 36.3713 57.1502 37.5688C57.1502 38.7663 58.1171 39.737 59.3099 39.737Z" fill="#258CCC"/>
<path d="M61.4617 51.4986C61.4617 52.696 60.4948 53.6668 59.302 53.6668C58.1093 53.6668 57.1423 52.696 57.1423 51.4986C57.1423 50.3011 58.1093 49.3303 59.302 49.3303C60.4948 49.3303 61.4617 50.3011 61.4617 51.4986Z" fill="#258CCC"/>
<path d="M61.4695 44.535C61.4695 45.7325 60.5026 46.7032 59.3099 46.7032C58.1171 46.7032 57.1502 45.7325 57.1502 44.535C57.1502 43.3375 58.1171 42.3667 59.3099 42.3667C60.5026 42.3667 61.4695 43.3375 61.4695 44.535Z" fill="#258CCC"/>
<path d="M0 41.5988V41.8898H15.9352L16.6246 37.4117H6.00899C6.63575 35.3955 8.67008 32.8471 11.3364 29.9841C15.0212 26.0645 15.8725 24.2004 15.8725 20.7946C15.8725 16.0203 13.6554 12.7744 8.11906 12.7744C2.03956 12.7744 0.112293 17.1188 0.0678982 21.6441H5.08714C5.18377 18.7627 5.75568 16.9458 7.9676 16.9458C10.0881 16.9458 10.5425 18.4559 10.5425 20.6111C10.5425 23.5056 9.7669 24.5674 6.45817 28.3481C2.11529 33.2588 0.0391721 36.696 0 41.5988Z" fill="#88BD24"/>
<path d="M19.257 41.5988V41.8898H35.1922L35.8816 37.4117H25.266C25.8927 35.3955 27.9271 32.8471 30.5934 29.9841C34.2782 26.0645 35.1295 24.2004 35.1295 20.7946C35.1295 16.0203 32.9124 12.7744 27.376 12.7744C21.2965 12.7744 19.3693 17.1188 19.3249 21.6441H24.3415C24.4381 18.7627 25.01 16.9458 27.222 16.9458C29.3425 16.9458 29.7969 18.4559 29.7969 20.6111C29.7969 23.5056 29.0239 24.5674 25.7151 28.3481C21.3723 33.2588 19.2962 36.696 19.257 41.5988Z" fill="#88BD24"/>
</svg>
