<svg display="none" xmlns="http://www.w3.org/2000/svg">

    <symbol id="eye" viewBox="0 0 28 18">
        <g opacity="0.25">
            <path d="M14 18C6.47 18 0.59 9.88384 0.34 9.53221L0 9L0.38 8.46779C0.59 8.11616 6.47 0 14 0C21.53 0 27.41 8.11616 27.66 8.46779L28 9L27.62 9.53221C27.41 9.88384 21.53 18 14 18ZM2.41 9C3.8 10.7297 8.55 16.0993 14 16.0993C19.45 16.0993 24.2 10.7392 25.59 9C24.2 7.27033 19.45 1.90074 14 1.90074C8.55 1.90074 3.8 7.26082 2.41 9Z" fill="black"/>
            <path d="M14 4.24758C13.8401 4.23876 13.6799 4.23876 13.52 4.24758C13.4368 4.25456 13.3593 4.29038 13.3021 4.34822C13.2449 4.40606 13.2121 4.48187 13.21 4.56121C13.2102 4.64682 13.2462 4.72886 13.31 4.78929C13.7813 5.24641 14.0467 5.86 14.05 6.49996C14.05 7.16286 13.7729 7.79861 13.2797 8.26735C12.7865 8.7361 12.1175 8.99943 11.42 8.99943C10.7561 8.99748 10.1186 8.7524 9.64 8.31517C9.59546 8.2701 9.53858 8.23772 9.47575 8.22167C9.41292 8.20561 9.34663 8.20652 9.28431 8.22429C9.222 8.24206 9.16613 8.27598 9.12297 8.32225C9.07981 8.36852 9.05108 8.42531 9.04 8.48623C9.01487 8.65628 9.00151 8.82772 9 8.99943C9 9.93926 9.29325 10.858 9.84265 11.6394C10.3921 12.4209 11.173 13.0299 12.0866 13.3896C13.0002 13.7492 14.0055 13.8433 14.9755 13.66C15.9454 13.4766 16.8363 13.0241 17.5355 12.3595C18.2348 11.6949 18.711 10.8482 18.9039 9.92647C19.0969 9.0047 18.9978 8.04927 18.6194 7.18098C18.241 6.31269 17.6001 5.57055 16.7779 5.04841C15.9556 4.52628 14.9889 4.24758 14 4.24758Z" fill="black"/>
        </g>
    </symbol>

    <symbol id="exit" viewBox="0 0 18 20" fill="none">
        <path d="M7.33333 18.3333H3.16667C2.72464 18.3333 2.30072 18.1577 1.98816 17.8452C1.67559 17.5326 1.5 17.1087 1.5 16.6667V3.33333C1.5 2.8913 1.67559 2.46738 1.98816 2.15482C2.30072 1.84226 2.72464 1.66666 3.16667 1.66666H7.33333" stroke="#CCCCCC" stroke-width="2" stroke-linecap="round" stroke-linejoin="round"/>
        <path d="M13.1667 13.3333L16.5 10L13.1667 6.66666" stroke="#CCCCCC" stroke-width="2" stroke-linecap="round" stroke-linejoin="round"/>
        <path d="M16.5 10H6.5" stroke="#CCCCCC" stroke-width="2" stroke-linecap="round" stroke-linejoin="round"/>
    </symbol>

    <symbol id="lock" viewBox="0 0 13 16" fill="none">
        <path d="M5.95833 11.5904C5.93791 11.5788 5.91783 11.5665 5.89813 11.5536C5.71998 11.4364 5.58113 11.2698 5.49913 11.0749C5.41714 10.88 5.39568 10.6655 5.43748 10.4586C5.47928 10.2517 5.58246 10.0616 5.73397 9.91242C5.88548 9.76325 6.07851 9.66165 6.28865 9.6205C6.4988 9.57934 6.71662 9.60046 6.91458 9.6812C7.11253 9.76193 7.28172 9.89865 7.40076 10.0741C7.5198 10.2495 7.58333 10.4557 7.58333 10.6667C7.58333 10.9496 7.4692 11.2209 7.26603 11.4209C7.1985 11.4874 7.12297 11.5442 7.04167 11.5904V13.3333H5.95833V11.5904Z" fill="#999999"/>
        <path fill-rule="evenodd" clip-rule="evenodd" d="M11.375 6.93333V4.26667C11.375 3.13508 10.9185 2.04983 10.1058 1.24968C9.29314 0.449523 8.19094 0 7.04167 0H5.95833C4.80906 0 3.70686 0.449523 2.8942 1.24968C2.08155 2.04983 1.625 3.13508 1.625 4.26667V6.93333C1.19402 6.93333 0.780698 7.1019 0.475952 7.40196C0.171205 7.70202 0 8.10899 0 8.53333V14.4C0 14.8243 0.171205 15.2313 0.475952 15.5314C0.780698 15.8314 1.19402 16 1.625 16H11.375C11.806 16 12.2193 15.8314 12.524 15.5314C12.8288 15.2313 13 14.8243 13 14.4V8.53333C13 8.10899 12.8288 7.70202 12.524 7.40196C12.2193 7.1019 11.806 6.93333 11.375 6.93333ZM1.625 8C1.48134 8 1.34357 8.05619 1.24198 8.15621C1.1404 8.25623 1.08333 8.39188 1.08333 8.53333V14.4C1.08333 14.5414 1.1404 14.6771 1.24198 14.7771C1.34357 14.8771 1.48134 14.9333 1.625 14.9333H11.375C11.5187 14.9333 11.6564 14.8771 11.758 14.7771C11.8596 14.6771 11.9167 14.5414 11.9167 14.4V8.53333C11.9167 8.39188 11.8596 8.25623 11.758 8.15621C11.6564 8.05619 11.5187 8 11.375 8H1.625ZM10.2917 6.93333V4.26667C10.2917 3.41797 9.94926 2.60404 9.33976 2.00393C8.73027 1.40381 7.90362 1.06667 7.04167 1.06667H5.95833C5.09638 1.06667 4.26973 1.40381 3.66024 2.00393C3.05074 2.60404 2.70833 3.41797 2.70833 4.26667V6.93333H10.2917Z" fill="#999999"/>
    </symbol>

    <symbol id="basket" viewBox="0 0 14 16" fill="none">
        <path fill-rule="evenodd" clip-rule="evenodd" d="M13.4615 3.2C13.4878 3.2 13.5141 3.19808 13.5404 3.1943C13.5762 3.18908 13.6109 3.18029 13.6445 3.16815C13.7182 3.14176 13.7855 3.09961 13.8422 3.04378C13.9432 2.94377 14 2.80812 14 2.66667C14 2.58117 13.979 2.4978 13.9401 2.42314C13.9148 2.37427 13.8822 2.32912 13.8422 2.28955C13.7413 2.18952 13.6046 2.13333 13.4615 2.13333H9.69231V0.533333C9.69231 0.391878 9.63552 0.256234 9.53456 0.156217C9.43359 0.0561849 9.29688 0 9.15385 0H4.84615C4.70313 0 4.56641 0.0561849 4.46545 0.156217C4.36448 0.256234 4.30769 0.391878 4.30769 0.533333V2.13333H0.538462C0.395433 2.13333 0.258714 2.18952 0.157752 2.28955C0.0567909 2.38957 0 2.52521 0 2.66667C0 2.71755 0.00736178 2.76766 0.0210337 2.81564C0.046274 2.90107 0.0935998 2.97974 0.157752 3.04378C0.258714 3.14382 0.395433 3.2 0.538462 3.2H13.4615ZM8.61539 2.13333H5.38462V1.06667H8.61539V2.13333Z" fill="#999999"/>
        <path d="M1.55018 15.5314C1.85307 15.8314 2.26427 16 2.69231 16H11.3077C11.7357 16 12.1469 15.8314 12.4498 15.5314C12.7527 15.2313 12.9231 14.8243 12.9231 14.4V4.26667C12.9231 4.1903 12.9063 4.11563 12.8747 4.04735C12.8484 3.98914 12.8116 3.93558 12.7653 3.88955C12.6644 3.78952 12.5276 3.73333 12.3846 3.73333L12.3215 3.73701C12.2826 3.74159 12.2437 3.75036 12.2069 3.7631C12.1596 3.77953 12.1143 3.80251 12.0733 3.83148C12.0491 3.84875 12.026 3.86815 12.0039 3.88955C11.9029 3.98957 11.8462 4.12521 11.8462 4.26667V14.4C11.8462 14.5415 11.7894 14.6771 11.6884 14.7771C11.5874 14.8771 11.4507 14.9333 11.3077 14.9333H2.69231C2.54928 14.9333 2.41256 14.8771 2.3116 14.7771C2.24114 14.7077 2.19276 14.621 2.16962 14.5272C2.1591 14.4859 2.15385 14.4432 2.15385 14.4V4.26667C2.15385 4.12521 2.09706 3.98957 1.99609 3.88955C1.89513 3.78952 1.75841 3.73333 1.61538 3.73333C1.57647 3.73333 1.53861 3.73739 1.5018 3.74526L1.45448 3.75736L1.39453 3.77987C1.33564 3.80617 1.28095 3.84313 1.23468 3.88955C1.21049 3.91323 1.18945 3.93892 1.17052 3.96621C1.14318 4.00636 1.12109 4.04997 1.10532 4.09578C1.08639 4.15033 1.07692 4.20799 1.07692 4.26667V14.4C1.07692 14.8243 1.2473 15.2313 1.55018 15.5314Z" fill="#999999"/>
        <path d="M6.61929 13.1771C6.72025 13.2771 6.85697 13.3333 7 13.3333C7.14303 13.3333 7.27975 13.2771 7.38071 13.1771C7.48167 13.0771 7.53846 12.9415 7.53846 12.8V5.33333C7.53846 5.19188 7.48167 5.05623 7.38071 4.95622C7.27975 4.85618 7.14303 4.8 7 4.8C6.85697 4.8 6.72025 4.85618 6.61929 4.95622C6.51833 5.05623 6.46154 5.19188 6.46154 5.33333V12.8C6.46154 12.9415 6.51833 13.0771 6.61929 13.1771Z" fill="#999999"/>
        <path d="M9.69231 12.2667C9.54928 12.2667 9.41256 12.2105 9.3116 12.1104C9.25586 12.0548 9.21274 11.9881 9.18645 11.9155C9.16541 11.8577 9.15385 11.7961 9.15385 11.7333V6.4C9.15385 6.32905 9.16857 6.25955 9.19591 6.19528C9.22221 6.13143 9.26112 6.07274 9.3116 6.02288C9.41256 5.92285 9.54928 5.86667 9.69231 5.86667C9.83534 5.86667 9.97206 5.92285 10.073 6.02288C10.174 6.1229 10.2308 6.25855 10.2308 6.4V11.7333C10.2308 11.8067 10.215 11.8785 10.1866 11.9446C10.1603 12.0059 10.1214 12.0623 10.073 12.1104C9.97206 12.2105 9.83534 12.2667 9.69231 12.2667Z" fill="#999999"/>
        <path d="M3.92698 12.1104C4.02795 12.2105 4.16466 12.2667 4.30769 12.2667C4.45072 12.2667 4.58744 12.2105 4.6884 12.1104C4.74309 12.0567 4.7841 11.9926 4.8104 11.9228C4.83353 11.8629 4.84615 11.7987 4.84615 11.7333V6.4C4.84615 6.25855 4.78936 6.1229 4.6884 6.02288C4.58744 5.92285 4.45072 5.86667 4.30769 5.86667C4.16466 5.86667 4.02795 5.92285 3.92698 6.02288C3.82602 6.1229 3.76923 6.25855 3.76923 6.4V11.7333C3.76923 11.8748 3.82602 12.0104 3.92698 12.1104Z" fill="#999999"/>
    </symbol>

    <symbol id="fb" viewBox="0 0 7 16" fill="none">
        <path d="M7 5.18087H4.61605V3.52027C4.61605 2.89663 5.00521 2.75123 5.27931 2.75123C5.55279 2.75123 6.96164 2.75123 6.96164 2.75123V0.00960457L4.64473 0C2.07275 0 1.48744 2.04479 1.48744 3.35334V5.18087H0V8.00596H1.48744C1.48744 11.6315 1.48744 16 1.48744 16H4.61605C4.61605 16 4.61605 11.5885 4.61605 8.00596H6.72715L7 5.18087Z" fill="#666666"/>
    </symbol>

    <symbol id="vk" viewBox="0 0 18 10" fill="none">
        <path d="M16.0136 6.92017C14.5016 5.55979 14.6946 5.7668 16.5283 3.43051C17.6221 2.01099 18.0725 1.12379 17.9438 0.739334C17.8795 0.502747 17.0109 0.561894 17.0109 0.561894H14.3086C14.3086 0.561894 13.8904 0.561894 13.7295 0.828054C13.44 1.3308 13.3113 1.95184 12.7323 2.86862C11.5098 4.85003 11.0272 4.96832 10.8342 4.85003C10.3838 4.5543 10.4803 3.69667 10.4803 3.07563C10.4803 1.15336 10.7699 0.35488 9.90128 0.118293C9.70825 0.0591466 9.5474 0.0591463 9.25787 0.0295729C8.904 -4.51694e-07 8.55013 0 8.22843 0C7.42417 0 6.81294 0.029573 6.39472 0.207013C6.07302 0.35488 5.84783 0.680187 6.00868 0.70976C6.2017 0.739334 6.58774 0.828054 6.81293 1.09421C7.10247 1.44909 7.0703 2.27715 7.0703 2.27715C7.0703 2.27715 7.23115 4.5543 6.68425 4.82046C6.33038 5.02747 5.81566 4.61344 4.75404 2.80947C4.20715 1.89269 4.14281 1.27165 3.78894 0.857627C3.56374 0.591467 3.14553 0.502747 3.14553 0.502747H0.571915C0.571915 0.502747 0.121532 0.473174 0.0571915 0.591467C-0.0714894 0.739334 0.0571915 1.03507 0.0571915 1.03507C0.0571915 1.03507 2.08391 5.61894 4.368 7.92566C6.39472 10.1141 8.77532 9.99579 8.77532 9.99579C8.77532 9.99579 10.1586 10.0549 10.3517 9.72963C10.4803 9.61134 10.5125 9.25646 10.5125 9.25646C10.5125 9.25646 10.4803 7.83694 11.1559 7.62993C11.8315 7.42291 12.6679 8.9903 13.5687 9.58177C14.2443 10.0549 14.4373 9.99579 14.759 9.99579C15.4024 9.99579 17.1717 9.99579 17.1717 9.99579C17.1717 9.99579 18.4264 9.8775 17.8473 8.90158C17.7508 8.84243 17.4613 8.22139 16.0136 6.92017Z" fill="#666666"/>
    </symbol>

    <symbol id="instagram" viewBox="0 0 16 16" fill="none">
        <path d="M12 5C12.5523 5 13 4.55228 13 4C13 3.44771 12.5523 3 12 3C11.4477 3 11 3.44771 11 4C11 4.55228 11.4477 5 12 5Z" fill="#666666"/>
        <path fill-rule="evenodd" clip-rule="evenodd" d="M8 4C5.8125 4 4 5.78125 4 8C4 10.2188 5.78125 12 8 12C10.2188 12 12 10.1875 12 8C12 5.8125 10.1875 4 8 4ZM8 10.5625C6.59375 10.5625 5.4375 9.40625 5.4375 8C5.4375 6.59375 6.59375 5.4375 8 5.4375C9.40625 5.4375 10.5625 6.59375 10.5625 8C10.5625 9.40625 9.40625 10.5625 8 10.5625Z" fill="#666666"/>
        <path fill-rule="evenodd" clip-rule="evenodd" d="M11.3226 0C12.6774 0 13.871 0.451612 14.7097 1.32258C15.5484 2.16129 16 3.32258 16 4.67742V11.3226C16 12.7097 15.5484 13.9032 14.6774 14.7419C13.8387 15.5484 12.6774 16 11.2903 16H4.70967C3.3871 16 2.2258 15.5806 1.35484 14.7419C0.451614 13.871 0 12.6774 0 11.2903V4.67742C0 1.87097 1.87097 0 4.67741 0H11.3226ZM13.6452 13.6774C14.2258 13.129 14.5806 12.3226 14.5806 11.3226V4.67742C14.5806 3.74193 14.2581 2.93548 13.7097 2.35484C13.129 1.77419 12.3226 1.48387 11.3548 1.48387H4.70967C3.74194 1.48387 2.90323 1.77419 2.35484 2.32258C1.7742 2.90323 1.48387 3.70968 1.48387 4.67742V11.2903C1.48387 12.2903 1.7742 13.0968 2.35484 13.6774C2.93549 14.2258 3.74194 14.5161 4.70967 14.5161H11.2903C12.2581 14.5161 13.0645 14.2258 13.6452 13.6774Z" fill="#666666"/>
    </symbol>

    <symbol id="youtube" viewBox="0 0 16 12" fill="none">
        <path d="M11.4286 6C11.4286 5.76875 11.3393 5.6 11.1607 5.49375L6.58929 2.49375C6.40476 2.36875 6.21131 2.3625 6.00893 2.475C5.8125 2.5875 5.71429 2.7625 5.71429 3V9C5.71429 9.2375 5.8125 9.4125 6.00893 9.525C6.10417 9.575 6.19643 9.6 6.28571 9.6C6.40476 9.6 6.50595 9.56875 6.58929 9.50625L11.1607 6.50625C11.3393 6.4 11.4286 6.23125 11.4286 6ZM16 6C16 6.6 15.997 7.06875 15.9911 7.40625C15.9851 7.74375 15.9598 8.17031 15.9152 8.68594C15.8705 9.20156 15.8036 9.6625 15.7143 10.0688C15.619 10.525 15.4137 10.9094 15.0982 11.2219C14.7827 11.5344 14.4137 11.7156 13.9911 11.7656C12.6696 11.9219 10.6726 12 8 12C5.32738 12 3.33036 11.9219 2.00893 11.7656C1.58631 11.7156 1.21577 11.5344 0.897321 11.2219C0.578869 10.9094 0.372024 10.525 0.276786 10.0688C0.193452 9.6625 0.129464 9.20156 0.0848214 8.68594C0.0401786 8.17031 0.014881 7.74375 0.00892857 7.40625C0.00297619 7.06875 0 6.6 0 6C0 5.4 0.00297619 4.93125 0.00892857 4.59375C0.014881 4.25625 0.0401786 3.82969 0.0848214 3.31406C0.129464 2.79844 0.196429 2.3375 0.285714 1.93125C0.380952 1.475 0.58631 1.09063 0.901786 0.778125C1.21726 0.465625 1.58631 0.284375 2.00893 0.234375C3.33036 0.078125 5.32738 0 8 0C10.6726 0 12.6696 0.078125 13.9911 0.234375C14.4137 0.284375 14.7842 0.465625 15.1027 0.778125C15.4211 1.09063 15.628 1.475 15.7232 1.93125C15.8065 2.3375 15.8705 2.79844 15.9152 3.31406C15.9598 3.82969 15.9851 4.25625 15.9911 4.59375C15.997 4.93125 16 5.4 16 6Z" fill="#666666"/>
    </symbol>

    <symbol id="telegram" viewBox="0 0 16 14" fill="none">
        <path d="M15.9544 1.2745L13.5399 13.1549C13.3577 13.9934 12.8827 14.202 12.2076 13.8071L8.5287 10.9786L6.7536 12.7599C6.55718 12.9648 6.39283 13.1363 6.01426 13.1363L6.27853 9.22704L13.097 2.79866C13.3935 2.52292 13.0327 2.3701 12.6363 2.64588L4.20695 8.18358L0.578034 6.99855C-0.211324 6.7414 -0.225585 6.17494 0.742313 5.77995L14.9365 0.0745518C15.5936 -0.182566 16.1687 0.227298 15.9544 1.2745Z" fill="#666666"/>
    </symbol>

    <symbol id="arrow-up" viewBox="0 0 16 18" fill="none">
        <path d="M7.23828 3.07617C6.42448 3.94206 5.59115 4.82096 4.73828 5.71289C3.88542 6.59831 3 7.5 2.08203 8.41797C2.03646 8.46354 1.98763 8.49609 1.93555 8.51562C1.88997 8.53516 1.83464 8.53841 1.76953 8.52539C1.70443 8.50586 1.62956 8.4668 1.54492 8.4082C1.4668 8.34961 1.3724 8.26497 1.26172 8.1543C1.15755 8.05013 1.07617 7.95898 1.01758 7.88086C0.965495 7.79622 0.932943 7.72461 0.919922 7.66602C0.913411 7.60742 0.916667 7.55534 0.929688 7.50977C0.949219 7.46419 0.978516 7.42188 1.01758 7.38281L7.41406 0.976562C7.4987 0.898438 7.58008 0.833333 7.6582 0.78125C7.74284 0.729167 7.85677 0.703125 8 0.703125C8.11068 0.703125 8.20833 0.725911 8.29297 0.771484C8.38411 0.810547 8.48177 0.878906 8.58594 0.976562L14.9824 7.38281C15.0215 7.42188 15.0475 7.46419 15.0605 7.50977C15.0801 7.55534 15.0833 7.60742 15.0703 7.66602C15.0638 7.72461 15.0312 7.79622 14.9727 7.88086C14.9206 7.95898 14.8424 8.05013 14.7383 8.1543C14.6276 8.26497 14.5299 8.34961 14.4453 8.4082C14.3672 8.4668 14.2956 8.50586 14.2305 8.52539C14.1654 8.53841 14.1068 8.53516 14.0547 8.51562C14.0091 8.49609 13.9635 8.46354 13.918 8.41797C13 7.5 12.1146 6.59831 11.2617 5.71289C10.4089 4.82096 9.57552 3.94206 8.76172 3.07617V16.7578C8.76172 16.8099 8.74544 16.8555 8.71289 16.8945C8.68685 16.9336 8.64128 16.9661 8.57617 16.9922C8.51758 17.0182 8.43945 17.041 8.3418 17.0605C8.25065 17.0801 8.13672 17.0898 8 17.0898C7.86328 17.0898 7.74609 17.0801 7.64844 17.0605C7.55729 17.041 7.47917 17.0182 7.41406 16.9922C7.35547 16.9661 7.3099 16.9336 7.27734 16.8945C7.2513 16.8555 7.23828 16.8099 7.23828 16.7578V3.07617Z" fill="#999999"/>
    </symbol>

    <symbol id="status" viewBox="0 0 30 30" fill="none">
        <rect width="30" height="30" rx="15" fill="#6FCF97"/>
        <path d="M7 15L11.8 20L23 10" stroke="white" stroke-width="2"/>
    </symbol>

    <symbol id="status-yellow" viewBox="0 0 20 20" fill="none">
        <rect width="20" height="20" rx="10" fill="#FFBF00"/>
        <rect x="9" y="9" width="2" height="6" fill="white"/>
        <rect x="9" y="5" width="2" height="2" fill="white"/>
    </symbol>

    <symbol id="close" viewBox="0 0 14 14" fill="none">
        <path d="M1 1L13 13M13 1L1 13" stroke="#999999" stroke-width="2"/>
    </symbol>

    <symbol id="user" viewBox="0 0 20 20" fill="none">
       <path d="M16.6666 17.5V15.8333C16.6666 14.9493 16.3155 14.1014 15.6903 13.4763C15.0652 12.8512 14.2174 12.5 13.3333 12.5H6.66665C5.78259 12.5 4.93474 12.8512 4.30962 13.4763C3.6845 14.1014 3.33331 14.9493 3.33331 15.8333V17.5" stroke="#2F80ED" stroke-width="2" stroke-linecap="round" stroke-linejoin="round"/>
        <path d="M10 9.16667C11.841 9.16667 13.3334 7.67428 13.3334 5.83333C13.3334 3.99238 11.841 2.5 10 2.5C8.15907 2.5 6.66669 3.99238 6.66669 5.83333C6.66669 7.67428 8.15907 9.16667 10 9.16667Z" stroke="#2F80ED" stroke-width="2" stroke-linecap="round" stroke-linejoin="round"/>
    </symbol>

    <symbol id="plus" viewBox="0 0 30 30" fill="none">
        <rect width="30" height="30" rx="15" fill="white"/>
        <rect x="14" y="9" width="2" height="12" fill="#2F80ED"/>
        <rect x="9" y="14" width="12" height="2" fill="#2F80ED"/>
    </symbol>

    <symbol id="pencil" viewBox="0 0 16 16">
        <path d="M4.51172 10.7307L9.34481 5.88849L10.0976 6.64272L5.26454 11.4849L4.51172 10.7307Z"/>
        <path fill-rule="evenodd" clip-rule="evenodd" d="M0.535555 16C0.460437 16.0004 0.386073 15.985 0.317352 15.9546C0.24863 15.9242 0.187108 15.8796 0.136828 15.8236C0.0865479 15.7677 0.0486495 15.7018 0.0256239 15.6302C0.00259836 15.5585 -0.005033 15.4828 0.00323149 15.408L0.482322 11.0507C0.495749 10.9295 0.550234 10.8166 0.636696 10.7307L10.7934 0.560218C10.9695 0.382679 11.179 0.241785 11.4096 0.14564C11.6403 0.0494961 11.8877 0 12.1375 0C12.3874 0 12.6348 0.0494961 12.8654 0.14564C13.0961 0.241785 13.3055 0.382679 13.4817 0.560218L15.4406 2.49619C15.6178 2.67264 15.7584 2.88246 15.8544 3.11357C15.9504 3.34468 15.9998 3.59252 15.9998 3.84284C15.9998 4.09315 15.9504 4.34099 15.8544 4.5721C15.7584 4.80321 15.6178 5.01303 15.4406 5.18948L5.26258 15.36C5.1769 15.4466 5.06417 15.5012 4.94319 15.5147L0.59411 16H0.535555ZM1.52568 11.3494L1.13708 14.864L4.64509 14.4747L12.8392 6.26083L9.72409 3.1399L1.52568 11.3494ZM14.6634 4.43216L13.6002 5.49797L10.4855 2.37745L11.5493 1.31221C11.7067 1.15652 11.919 1.06923 12.1402 1.06923C12.3614 1.06923 12.5737 1.15652 12.7311 1.31221L14.6634 3.24818C14.8188 3.40588 14.9059 3.61857 14.9059 3.84017C14.9059 4.06177 14.8188 4.27446 14.6634 4.43216Z"/>
    </symbol>

     <symbol id="clip" viewBox="0 0 18 20" fill="none">
        <path d="M7.80476 2.51973C9.45589 -0.026089 12.8803 -0.765523 15.4533 0.86813C18.0264 2.50178 18.7737 5.88995 17.1225 8.43576L17.1207 8.43586L11.3159 17.3859C11.0925 17.7303 10.6289 17.8303 10.2804 17.6091L10.1087 17.5C9.76032 17.2788 9.65902 16.8201 9.88245 16.4757L15.6871 7.52566L15.689 7.52556C16.8321 5.76311 16.3147 3.4175 14.5334 2.28643C12.7521 1.15545 10.3814 1.66738 9.23828 3.42984L7.80476 2.51973Z" fill="#2F80ED"/>
        <path d="M9.23752 3.43059L2.10786 14.4235C1.34695 15.5982 1.69194 17.1605 2.87907 17.9141C4.06673 18.6679 5.6474 18.3267 6.40958 17.1518L8.24954 14.3153L8.24836 14.3145L12.8479 7.22282L12.849 7.22356C13.2299 6.63602 13.0575 5.85424 12.4637 5.47728C11.8699 5.10022 11.0797 5.2709 10.6987 5.85835L10.6975 5.8577L7.04528 11.5879C6.82185 11.9324 6.35828 12.0324 6.0098 11.8111L5.83813 11.702C5.48969 11.4809 5.38834 11.0222 5.61177 10.6777L9.26411 4.9474L9.2652 4.94815C10.1543 3.57743 11.9981 3.17925 13.3837 4.05889C14.7691 4.93862 15.1715 6.76295 14.2824 8.13377L14.2813 8.13311L12.442 10.969L12.4434 10.9699L7.84356 18.0622C6.57315 20.0201 3.93836 20.5887 1.959 19.3323C-0.0204115 18.0759 -0.595217 15.47 0.675147 13.5118L7.80401 2.52038L9.23752 3.43059Z" fill="#2F80ED"/>
    </symbol>

    <symbol id="list" viewBox="0 0 24 32" fill="none">
        <path d="M18 13C18.5523 13 19 13.4477 19 14C19 14.5523 18.5523 15 18 15H6C5.44772 15 5 14.5523 5 14C5 13.4477 5.44772 13 6 13H18Z" fill="#2F80ED"/>
        <path d="M18 17C18.5523 17 19 17.4477 19 18C19 18.5523 18.5523 19 18 19H6C5.44772 19 5 18.5523 5 18C5 17.4477 5.44772 17 6 17H18Z" fill="#2F80ED"/>
        <path d="M19 22C19 21.4477 18.5523 21 18 21H6C5.44772 21 5 21.4477 5 22C5 22.5523 5.44772 23 6 23H18C18.5523 23 19 22.5523 19 22Z" fill="#2F80ED"/>
        <path fill-rule="evenodd" clip-rule="evenodd" d="M17 0C17.2652 0 17.5196 0.105357 17.7071 0.292893L23.7071 6.29289C23.8946 6.48043 24 6.73478 24 7V31C24 31.5523 23.5523 32 23 32H1C0.447716 32 0 31.5523 0 31V1C0 0.447715 0.447716 0 1 0H17ZM22 7.41421L16.5858 2H2V30H22V7.41421Z" fill="#2F80ED"/>
        <path fill-rule="evenodd" clip-rule="evenodd" d="M17 0C16.4477 0 16 0.447715 16 1V7C16 7.55228 16.4477 8 17 8H23C23.5523 8 24 7.55228 24 7C24 6.44772 23.5523 6 23 6H18V1C18 0.447715 17.5523 0 17 0Z" fill="#2F80ED"/>
    </symbol>

    <symbol id="chevron-left" viewBox="0 0 7 10" fill="none">
        <path fill-rule="evenodd" clip-rule="evenodd" d="M6.28033 0.209209C6.57322 0.488155 6.57322 0.940416 6.28033 1.21936L2.31066 5L6.28033 8.78064C6.57322 9.05958 6.57322 9.51184 6.28033 9.79079C5.98744 10.0697 5.51256 10.0697 5.21967 9.79079L0.71967 5.50508C0.426777 5.22613 0.426777 4.77387 0.71967 4.49492L5.21967 0.209209C5.51256 -0.0697365 5.98744 -0.0697365 6.28033 0.209209Z" fill="#2F80ED"/>
    </symbol>

    <symbol id="clip-vertical" viewBox="0 0 12 24" fill="none">
        <path d="M10.3636 5.45455V18C10.3636 20.4109 8.41091 22.3636 6 22.3636C3.58909 22.3636 1.63636 20.4109 1.63636 18V4.36364C1.63636 2.85818 2.85818 1.63636 4.36364 1.63636C5.86909 1.63636 7.09091 2.85818 7.09091 4.36364V15.8182C7.09091 16.4182 6.60545 16.9091 6 16.9091C5.39455 16.9091 4.90909 16.4182 4.90909 15.8182V5.45455H3.27273V15.8182C3.27273 17.3236 4.49455 18.5455 6 18.5455C7.50545 18.5455 8.72727 17.3236 8.72727 15.8182V4.36364C8.72727 1.95273 6.77455 0 4.36364 0C1.95273 0 0 1.95273 0 4.36364V18C0 21.3164 2.68909 24 6 24C9.31091 24 12 21.3164 12 18V5.45455H10.3636Z" fill="#CCCCCC"/>
    </symbol>

    <symbol id="send" viewBox="0 0 22 22">
        <path d="M21.423 10.0365L1.74838 0.116597C0.759156 -0.324286 -0.339982 0.55748 0.0996737 1.54947L2.84752 8.93426L15.3777 11.0285L2.84752 13.1226L0.0996737 20.5074C-0.230068 21.4994 0.759156 22.3812 1.74838 21.8301L21.423 11.9102C22.1923 11.5796 22.1923 10.4773 21.423 10.0365Z"/>
    </symbol>

    <symbol id="chevron-left-round" viewBox="0 0 30 30" fill="none">
        <rect width="30" height="30" rx="15" fill="#F5F6F8"/>
        <path fill-rule="evenodd" clip-rule="evenodd" d="M16.6061 9.25105C16.9408 9.58579 16.9408 10.1285 16.6061 10.4632L12.0693 15L16.6061 19.5368C16.9408 19.8715 16.9408 20.4142 16.6061 20.7489C16.2714 21.0837 15.7286 21.0837 15.3939 20.7489L10.2511 15.6061C9.91632 15.2714 9.91632 14.7286 10.2511 14.3939L15.3939 9.25105C15.7286 8.91632 16.2714 8.91632 16.6061 9.25105Z" fill="#2F80ED"/>
    </symbol>

    <symbol id="file" viewBox="0 0 16 20">
        <path d="M10.6667 5.71429V0.446429C10.8194 0.550595 10.9444 0.654762 11.0417 0.758929L15.2917 5.3125C15.3889 5.41667 15.4861 5.5506 15.5833 5.71429H10.6667ZM9.33333 6.07143C9.33333 6.36905 9.43056 6.62202 9.625 6.83036C9.81944 7.03869 10.0556 7.14286 10.3333 7.14286H16V18.9286C16 19.2262 15.9028 19.4792 15.7083 19.6875C15.5139 19.8958 15.2778 20 15 20H1C0.722222 20 0.486111 19.8958 0.291667 19.6875C0.0972222 19.4792 0 19.2262 0 18.9286V1.07143C0 0.77381 0.0972222 0.520833 0.291667 0.3125C0.486111 0.104167 0.722222 0 1 0H9.33333V6.07143Z" />
    </symbol>

    <symbol id="reload" viewBox="0 0 16 16" fill="none">
        <path d="M7.99918 0.000821045C5.87767 0.000821045 3.84304 0.843589 2.34291 2.34373C0.842768 3.84386 0 5.87849 0 8C0 10.1215 0.842768 12.1561 2.34291 13.6563C3.84304 15.1564 5.87767 15.9992 7.99918 15.9992C9.05529 16.0143 10.1039 15.8201 11.0846 15.4279C12.0653 15.0356 12.9585 14.453 13.7129 13.7137L12.1416 11.9996C11.6024 12.5498 10.9574 12.9853 10.2455 13.2799C9.53365 13.5745 8.76955 13.722 7.99918 13.7137C6.48381 13.7137 5.03051 13.1117 3.95898 12.0402C2.88746 10.9687 2.28548 9.51537 2.28548 8C2.28548 6.48463 2.88746 5.03133 3.95898 3.9598C5.03051 2.88828 6.48381 2.2863 7.99918 2.2863C8.76955 2.27798 9.53365 2.42554 10.2455 2.72011C10.9574 3.01468 11.6024 3.45018 12.1416 4.00041L9.71329 6.28589H15.9984V0.000821045L13.7129 2.2863C12.9585 1.54699 12.0653 0.964396 11.0846 0.572128C10.1039 0.17986 9.05529 -0.0143111 7.99918 0.000821045Z" fill="#2F80ED"/>
    </symbol>

</svg>